<svg width="216" height="177" viewBox="0 0 216 177" fill="none" xmlns="http://www.w3.org/2000/svg">
<g clip-path="url(#clip0_27_1013)">
<path d="M8.47059 61.6577C8.47059 59.3093 6.57438 57.4055 4.23529 57.4055C1.89621 57.4055 0 59.3093 0 61.6577V86.1082C0 88.4566 1.89621 90.3604 4.23529 90.3604C6.57438 90.3604 8.47059 88.4566 8.47059 86.1082V61.6577Z" fill="url(#paint0_linear_27_1013)"/>
<path d="M25.4118 49.964C25.4118 47.6155 23.5155 45.7117 21.1765 45.7117C18.8374 45.7117 16.9412 47.6155 16.9412 49.964V97.8018C16.9412 100.15 18.8374 102.054 21.1765 102.054C23.5155 102.054 25.4118 100.15 25.4118 97.8018V49.964Z" fill="url(#paint1_linear_27_1013)"/>
<path d="M42.3529 35.0811C42.3529 32.7327 40.4567 30.8289 38.1176 30.8289C35.7785 30.8289 33.8823 32.7327 33.8823 35.0811V112.685C33.8823 115.033 35.7785 116.937 38.1176 116.937C40.4567 116.937 42.3529 115.033 42.3529 112.685V35.0811Z" fill="url(#paint2_linear_27_1013)"/>
<path d="M59.2941 61.6577C59.2941 59.3093 57.3979 57.4055 55.0588 57.4055C52.7198 57.4055 50.8235 59.3093 50.8235 61.6577V86.1082C50.8235 88.4566 52.7198 90.3604 55.0588 90.3604C57.3979 90.3604 59.2941 88.4566 59.2941 86.1082V61.6577Z" fill="url(#paint3_linear_27_1013)"/>
<path d="M165.176 61.6577C165.176 59.3093 163.28 57.4055 160.941 57.4055C158.602 57.4055 156.706 59.3093 156.706 61.6577V86.1082C156.706 88.4566 158.602 90.3604 160.941 90.3604C163.28 90.3604 165.176 88.4566 165.176 86.1082V61.6577Z" fill="url(#paint4_linear_27_1013)"/>
<path d="M182.118 35.0811C182.118 32.7327 180.221 30.8289 177.882 30.8289C175.543 30.8289 173.647 32.7327 173.647 35.0811V112.685C173.647 115.033 175.543 116.937 177.882 116.937C180.221 116.937 182.118 115.033 182.118 112.685V35.0811Z" fill="url(#paint5_linear_27_1013)"/>
<path d="M199.059 49.964C199.059 47.6155 197.163 45.7117 194.824 45.7117C192.484 45.7117 190.588 47.6155 190.588 49.964V97.8018C190.588 100.15 192.484 102.054 194.824 102.054C197.163 102.054 199.059 100.15 199.059 97.8018V49.964Z" fill="url(#paint6_linear_27_1013)"/>
<path d="M216 61.6577C216 59.3093 214.104 57.4055 211.765 57.4055C209.426 57.4055 207.529 59.3093 207.529 61.6577V86.1082C207.529 88.4566 209.426 90.3604 211.765 90.3604C214.104 90.3604 216 88.4566 216 86.1082V61.6577Z" fill="url(#paint7_linear_27_1013)"/>
<path d="M108 0C129.176 0 148.765 19.1351 169.941 59.5315C190.059 96.7387 200.118 135.009 178.941 157.333C165.176 171.685 137.118 177 108 177C78.8823 177 50.8235 171.685 37.0588 157.333C15.8823 135.009 25.9412 96.7387 46.0588 59.5315C67.2353 19.1351 86.8235 0 108 0Z" fill="url(#paint8_linear_27_1013)"/>
<mask id="mask0_27_1013" style="mask-type:alpha" maskUnits="userSpaceOnUse" x="25" y="0" width="166" height="177">
<path d="M108 0C129.176 0 148.765 19.1351 169.941 59.5315C190.059 96.7387 200.118 135.009 178.941 157.333C165.176 171.685 137.118 177 108 177C78.8823 177 50.8235 171.685 37.0588 157.333C15.8823 135.009 25.9411 96.7387 46.0588 59.5315C67.2352 19.1351 86.8235 0 108 0Z" fill="url(#paint9_linear_27_1013)"/>
</mask>
<g mask="url(#mask0_27_1013)">
<path d="M130.235 91.4234H85.7647C77.5779 91.4234 70.9412 98.0867 70.9412 106.306V162.117C70.9412 170.337 77.5779 177 85.7647 177H130.235C138.422 177 145.059 170.337 145.059 162.117V106.306C145.059 98.0867 138.422 91.4234 130.235 91.4234Z" fill="#2B2542"/>
</g>
</g>
<defs>
<linearGradient id="paint0_linear_27_1013" x1="2.11765" y1="53.1532" x2="213.882" y2="53.1532" gradientUnits="userSpaceOnUse">
<stop stop-color="#C8A5F2"/>
<stop offset="1" stop-color="#B98DEB"/>
</linearGradient>
<linearGradient id="paint1_linear_27_1013" x1="2.11763" y1="53.1532" x2="213.882" y2="53.1532" gradientUnits="userSpaceOnUse">
<stop stop-color="#C8A5F2"/>
<stop offset="1" stop-color="#B98DEB"/>
</linearGradient>
<linearGradient id="paint2_linear_27_1013" x1="2.11761" y1="53.1532" x2="213.882" y2="53.1532" gradientUnits="userSpaceOnUse">
<stop stop-color="#C8A5F2"/>
<stop offset="1" stop-color="#B98DEB"/>
</linearGradient>
<linearGradient id="paint3_linear_27_1013" x1="2.11766" y1="53.1532" x2="213.882" y2="53.1532" gradientUnits="userSpaceOnUse">
<stop stop-color="#C8A5F2"/>
<stop offset="1" stop-color="#B98DEB"/>
</linearGradient>
<linearGradient id="paint4_linear_27_1013" x1="2.11762" y1="53.1532" x2="213.882" y2="53.1532" gradientUnits="userSpaceOnUse">
<stop stop-color="#C8A5F2"/>
<stop offset="1" stop-color="#B98DEB"/>
</linearGradient>
<linearGradient id="paint5_linear_27_1013" x1="2.11764" y1="53.1532" x2="213.882" y2="53.1532" gradientUnits="userSpaceOnUse">
<stop stop-color="#C8A5F2"/>
<stop offset="1" stop-color="#B98DEB"/>
</linearGradient>
<linearGradient id="paint6_linear_27_1013" x1="2.11766" y1="53.1532" x2="213.882" y2="53.1532" gradientUnits="userSpaceOnUse">
<stop stop-color="#C8A5F2"/>
<stop offset="1" stop-color="#B98DEB"/>
</linearGradient>
<linearGradient id="paint7_linear_27_1013" x1="2.11763" y1="53.1532" x2="213.882" y2="53.1532" gradientUnits="userSpaceOnUse">
<stop stop-color="#C8A5F2"/>
<stop offset="1" stop-color="#B98DEB"/>
</linearGradient>
<linearGradient id="paint8_linear_27_1013" x1="60.3529" y1="1.53402e-06" x2="156.175" y2="143.16" gradientUnits="userSpaceOnUse">
<stop stop-color="#F7F3FC"/>
<stop offset="1" stop-color="#DCCFE8"/>
</linearGradient>
<linearGradient id="paint9_linear_27_1013" x1="60.3529" y1="1.53402e-06" x2="156.175" y2="143.16" gradientUnits="userSpaceOnUse">
<stop stop-color="#F7F3FC"/>
<stop offset="1" stop-color="#DCCFE8"/>
</linearGradient>
<clipPath id="clip0_27_1013">
<rect width="216" height="177" fill="white"/>
</clipPath>
</defs>
</svg>
